/vscmnt/brussel_pixiu_data/_data_brussel/112/vsc11236/PredSimResults/SUBJ06mtu3D/weighted-expIG/worker_04.mot
version=1
nRows=10
nColumns=50
inDegrees=yes
endheader
                time	         pelvis_tilt	         pelvis_list	     pelvis_rotation	           pelvis_tx	           pelvis_ty	           pelvis_tz	       hip_flexion_r	     hip_adduction_r	      hip_rotation_r	        knee_angle_r	       ankle_angle_r	         mtp_angle_r	       hip_flexion_l	     hip_adduction_l	      hip_rotation_l	        knee_angle_l	       ankle_angle_l	         mtp_angle_l	    lumbar_extension	      lumbar_bending	     lumbar_rotation	 ercspn_r/activation	 intobl_r/activation	 extobl_r/activation	    abd_r/activation	    add_r/activation	hamstrings_r/activation	bifemsh_r/activation	glut_max_r/activation	iliopsoas_r/activation	rect_fem_r/activation	  vasti_r/activation	gastroc_r/activation	 soleus_r/activation	tib_ant_r/activation	 ercspn_l/activation	 intobl_l/activation	 extobl_l/activation	    abd_l/activation	    add_l/activation	hamstrings_l/activation	bifemsh_l/activation	glut_max_l/activation	iliopsoas_l/activation	rect_fem_l/activation	  vasti_l/activation	gastroc_l/activation	 soleus_l/activation	tib_ant_l/activation	
          0.00000000	         -9.00935174	          4.25286659	        -14.43252754	          0.00000000	          0.96425988	          0.00467462	         21.07201990	          2.88063915	         13.20338957	        -20.95564821	         12.53204690	          1.44945684	         16.27691188	          2.69982288	        -10.18537445	        -25.76009776	          3.58161880	         24.88622457	         -3.65373793	          0.22906448	         -9.86404587	          0.21500589	          0.02085456	          0.06595933	          0.07756854	          0.16581861	          0.28126231	          0.00999999	          0.01576111	          0.02234483	          0.05549987	          0.06015839	          0.00999999	          0.00999999	          0.41281890	          0.13585920	          0.17975316	          0.00999999	          0.03060090	          0.00999999	          0.02004796	          0.20335892	          0.02370368	          0.48571760	          0.00999999	          0.01649974	          0.29113744	          0.12272019	          0.01099649	
          0.02000000	         -8.50988552	          4.34621467	        -13.92269018	          0.02063885	          0.96156061	          0.00313343	         20.14489377	          2.73782412	         13.44854975	        -20.78782890	         11.66815329	          1.22380404	         19.01348388	          2.75380795	         -9.35681813	        -33.92432648	          3.02467973	         27.44582300	         -4.14373839	          0.33135897	         -9.22038070	          0.16125442	          0.01564092	          0.04946950	          0.09721845	          0.12436395	          0.21094673	          0.00999999	          0.01182084	          0.01675862	          0.04213988	          0.24265004	          0.09638155	          0.13565222	          0.30961417	          0.17412511	          0.22422752	          0.00999999	          0.02295068	          0.00999999	          0.01503597	          0.17513846	          0.01777776	          0.36428822	          0.13756542	          0.01237481	          0.21835308	          0.09204014	          0.11407441	
          0.04000000	         -8.02750093	          4.29095913	        -13.28513673	          0.04198449	          0.95730976	          0.00135703	         18.62752112	          2.20617514	         13.07535946	        -21.61690612	         13.11704394	          2.54347562	         22.27954299	          2.76542779	         -8.27788594	        -42.94004789	          2.53354829	         27.16276522	         -4.51108370	          0.56297100	         -8.39620758	          0.12094081	          0.03719258	          0.03710212	          0.18650464	          0.09327297	          0.15821005	          0.01000000	          0.01865249	          0.01256897	          0.03160491	          0.27729866	          0.13939515	          0.21123873	          0.23221063	          0.20561884	          0.16817064	          0.25454144	          0.01721301	          0.00999999	          0.01127697	          0.24138531	          0.01333332	          0.29583720	          0.38195373	          0.00999999	          0.16376481	          0.06903011	          0.17418750	
          0.06000000	         -7.63164905	          4.00193466	        -12.60184480	          0.06357644	          0.95302360	         -0.00023405	         16.45015359	          1.75262287	         12.34872089	        -21.33330225	         14.99870396	          4.55572542	         25.63055635	          2.64159727	         -7.27135560	        -51.53208788	          1.91493605	         23.75156034	         -4.80922401	          0.96288963	         -7.45875906	          0.09070561	          0.02789443	          0.02782659	          0.25478533	          0.06995472	          0.11865754	          0.00999999	          0.08055868	          0.00999999	          0.02370368	          0.21635772	          0.19176694	          0.28297110	          0.17415797	          0.18380493	          0.13509814	          0.35764494	          0.01290975	          0.00999999	          0.00999999	          0.25686788	          0.00999999	          0.26658152	          0.66143809	          0.00999999	          0.12282361	          0.05177258	          0.31629640	
          0.08000000	         -7.34471661	          3.59784154	        -11.90335751	          0.08472724	          0.94990329	         -0.00162023	         14.40959677	          1.50507927	         11.47526588	        -21.03426215	         16.37557915	          6.62325573	         28.68585517	          2.45342064	         -6.40648835	        -58.32778807	          2.55864218	         18.54442000	         -5.12741220	          1.37693623	         -6.51061243	          0.06802921	          0.02092083	          0.02086994	          0.24297574	          0.05246604	          0.08899315	          0.00999999	          0.09235991	          0.00999999	          0.01777776	          0.21299476	          0.23269701	          0.33283447	          0.13061848	          0.13785370	          0.19937335	          0.33680902	          0.00999999	          0.00999999	          0.00999999	          0.31491960	          0.00999999	          0.22472323	          0.82842024	          0.00999999	          0.09211771	          0.03882943	          0.33646506	
          0.10000000	         -7.16907112	          3.28975340	        -11.17515657	          0.10522379	          0.94837039	         -0.00286470	         12.64327963	          1.25935734	         10.50161208	        -20.77844190	         16.95762997	          8.71834889	         31.26913153	          2.36804075	         -5.61493392	        -61.84040179	          4.13226199	         14.38784973	         -5.48033817	          1.56250727	         -5.57999600	          0.05102190	          0.01569062	          0.01565246	          0.22925522	          0.03934953	          0.06674486	          0.00999999	          0.06926993	          0.00999999	          0.01333332	          0.20738451	          0.25910768	          0.35022783	          0.09796386	          0.10339027	          0.21019295	          0.25260676	          0.00999999	          0.00999999	          0.00999999	          0.23618970	          0.00999999	          0.21588190	          0.76698638	          0.00999999	          0.06908828	          0.02912208	          0.32461747	
          0.12000000	         -7.08408634	          3.09152238	        -10.39732338	          0.12529153	          0.94819065	         -0.00406631	         10.93051060	          0.95130882	          9.45526108	        -20.25007184	         16.89726296	         10.78871389	         33.41389327	          2.39037491	         -4.87095444	        -62.35628218	          5.58505724	         11.07789483	         -5.86745130	          1.52578775	         -4.65483096	          0.03826643	          0.01176796	          0.01173934	          0.20001681	          0.02951215	          0.05005865	          0.00999999	          0.05195245	          0.00999999	          0.00999999	          0.15721298	          0.28011963	          0.34996218	          0.07347289	          0.11804981	          0.17665329	          0.18945507	          0.00999999	          0.00999999	          0.00999999	          0.17714227	          0.00999999	          0.20910511	          0.57523978	          0.00999999	          0.05181621	          0.02184156	          0.30588523	
          0.14000000	         -7.06925218	          2.98518636	         -9.57572619	          0.14529435	          0.94882635	         -0.00519958	          9.19946858	          0.59639204	          8.34559048	        -19.45122319	         16.39998288	         12.81340267	         35.06917240	          2.51251692	         -4.12413985	        -60.36877642	          6.81527055	          8.48653761	         -6.24548111	          1.30130434	         -3.73968551	          0.02869982	          0.00999999	          0.00999999	          0.17218358	          0.02213411	          0.03754399	          0.00999999	          0.03896434	          0.00999999	          0.06576633	          0.11790974	          0.29707064	          0.33884070	          0.05510467	          0.13571926	          0.14464436	          0.14209130	          0.00999999	          0.00999999	          0.00999999	          0.13285671	          0.00999999	          0.18037772	          0.43142984	          0.01332110	          0.03886216	          0.01638117	          0.29207570	
          0.16000000	         -7.11374900	          2.94075839	         -8.72209886	          0.16561067	          0.94978152	         -0.00620039	          7.40345927	          0.23116946	          7.16173123	        -18.39511604	         15.59825434	         14.80806652	         36.13366411	          2.70975462	         -3.32642548	        -56.26203178	          7.74558715	          6.45371591	         -6.55944746	          0.93086912	         -2.84876079	          0.02152487	          0.00999999	          0.00999999	          0.15068391	          0.01660058	          0.02815799	          0.00999999	          0.02922325	          0.00999999	          0.09327819	          0.08843230	          0.31205578	          0.32251141	          0.04132850	          0.15413764	          0.10848327	          0.10656848	          0.00999999	          0.00999999	          0.00999999	          0.09964253	          0.01637100	          0.15580918	          0.32357238	          0.01607565	          0.02914662	          0.01228588	          0.27580894	
          0.18000000	         -7.20392855	          2.90032518	         -7.84026594	          0.18660673	          0.95067117	         -0.00700808	          5.46798311	         -0.07715677	          5.89734657	        -17.05325267	         14.58535324	         16.77520329	         36.49831576	          2.91859503	         -2.43117369	        -50.28651395	          8.26854004	          4.90035484	         -6.76808143	          0.48255214	         -2.00272049	          0.01614365	          0.00999999	          0.00999999	          0.13202285	          0.01245044	          0.02111849	          0.00999999	          0.02191744	          0.00999999	          0.06995865	          0.06632423	          0.32548409	          0.30462403	          0.03099638	          0.17749308	          0.08136245	          0.07992636	          0.00999999	          0.00999999	          0.00999999	          0.07473190	          0.03160491	          0.15268505	          0.24267928	          0.01205674	          0.02185996	          0.00999999	          0.26191586	
